<svg width="32" height="32" fill="none" xmlns="http://www.w3.org/2000/svg"><path d="M0 4a4 4 0 0 1 4-4h24a4 4 0 0 1 4 4v24a4 4 0 0 1-4 4H4a4 4 0 0 1-4-4V4Z" fill="#000"/><mask id="mask0_16919_9" style="mask-type:alpha" maskUnits="userSpaceOnUse" x="8" y="2" width="15" height="28"><path fill="#D9D9D9" d="M8 2h15v28H8z"/></mask><g mask="url('#mask0_16919_9')"><path d="M18.29 1.992c1.197 0 2.213.423 3.046 1.27.846.846 1.27 1.868 1.27 3.066V30h-2.891V6.074a1.38 1.38 0 0 0-.41-1.015 1.38 1.38 0 0 0-1.016-.41c-.404 0-.749.136-1.035.41a1.38 1.38 0 0 0-.41 1.015V30h-2.89V6.074a1.38 1.38 0 0 0-.411-1.015 1.38 1.38 0 0 0-1.016-.41c-.403 0-.748.136-1.035.41a1.38 1.38 0 0 0-.41 1.015V30h-2.89V6.328c0-1.198.423-2.22 1.269-3.066.846-.847 1.868-1.27 3.066-1.27 1.068 0 2.025.378 2.871 1.133.847-.755 1.81-1.133 2.891-1.133ZM36.987 30V1.992h2.89V30h-2.89ZM64.36 1.992c1.198 0 2.214.423 3.047 1.27.847.846 1.27 1.868 1.27 3.066V30h-2.89V6.074a1.38 1.38 0 0 0-.411-1.015 1.38 1.38 0 0 0-1.016-.41c-.403 0-.748.136-1.035.41a1.38 1.38 0 0 0-.41 1.015V30h-2.89V6.074a1.38 1.38 0 0 0-.41-1.015 1.38 1.38 0 0 0-1.016-.41c-.404 0-.749.136-1.035.41a1.38 1.38 0 0 0-.41 1.015V30h-2.891V6.328c0-1.198.423-2.22 1.27-3.066.846-.847 1.868-1.27 3.066-1.27 1.067 0 2.024.378 2.87 1.133.847-.755 1.81-1.133 2.891-1.133ZM83.06 30V1.992h2.89V30h-2.89Zm23.035-15.313V1.992h2.89V30h-2.89V17.324h-2.871V30h-2.891V1.992h2.891v12.695h2.871Zm18.562-11.425c.847-.847 1.869-1.27 3.067-1.27 1.198 0 2.213.423 3.047 1.27.846.846 1.269 1.868 1.269 3.066v19.356c0 1.197-.423 2.22-1.269 3.066-.834.833-1.849 1.25-3.047 1.25-1.198 0-2.22-.417-3.067-1.25-.846-.846-1.269-1.869-1.269-3.066V6.328c0-1.198.423-2.22 1.269-3.066Zm4.492 22.656V6.074c0-.403-.136-.742-.41-1.015a1.378 1.378 0 0 0-1.015-.41c-.404 0-.749.136-1.035.41a1.378 1.378 0 0 0-.411 1.015v19.844c0 .404.137.749.411 1.035.286.274.631.41 1.035.41.403 0 .742-.136 1.015-.41.274-.286.41-.631.41-1.035Z" fill="#F3C653" fill-opacity=".7"/></g></svg>