<svg width="32" height="32" viewBox="0 0 32 32" fill="none" xmlns="http://www.w3.org/2000/svg">
<path d="M0 4C0 1.79086 1.79086 0 4 0H28C30.2091 0 32 1.79086 32 4V28C32 30.2091 30.2091 32 28 32H4C1.79086 32 0 30.2091 0 28V4Z" fill="black"/>
<mask id="mask0_16919_9" style="mask-type:alpha" maskUnits="userSpaceOnUse" x="8" y="2" width="15" height="28">
<rect x="8" y="2" width="15" height="28" fill="#D9D9D9"/>
</mask>
<g mask="url(#mask0_16919_9)">
<path d="M18.2891 1.99219C19.487 1.99219 20.5026 2.41536 21.3359 3.26172C22.1823 4.10807 22.6055 5.13021 22.6055 6.32812V30H19.7148V6.07422C19.7148 5.67057 19.5781 5.33203 19.3047 5.05859C19.0312 4.78516 18.6927 4.64844 18.2891 4.64844C17.8854 4.64844 17.5404 4.78516 17.2539 5.05859C16.9805 5.33203 16.8438 5.67057 16.8438 6.07422V30H13.9531V6.07422C13.9531 5.67057 13.8164 5.33203 13.543 5.05859C13.2695 4.78516 12.931 4.64844 12.5273 4.64844C12.1237 4.64844 11.7786 4.78516 11.4922 5.05859C11.2188 5.33203 11.082 5.67057 11.082 6.07422V30H8.19141V6.32812C8.19141 5.13021 8.61458 4.10807 9.46094 3.26172C10.3073 2.41536 11.3294 1.99219 12.5273 1.99219C13.5951 1.99219 14.5521 2.36979 15.3984 3.125C16.2448 2.36979 17.2083 1.99219 18.2891 1.99219ZM36.9883 30V1.99219H39.8789V30H36.9883ZM64.3594 1.99219C65.5573 1.99219 66.5729 2.41536 67.4062 3.26172C68.2526 4.10807 68.6758 5.13021 68.6758 6.32812V30H65.7852V6.07422C65.7852 5.67057 65.6484 5.33203 65.375 5.05859C65.1016 4.78516 64.763 4.64844 64.3594 4.64844C63.9557 4.64844 63.6107 4.78516 63.3242 5.05859C63.0508 5.33203 62.9141 5.67057 62.9141 6.07422V30H60.0234V6.07422C60.0234 5.67057 59.8867 5.33203 59.6133 5.05859C59.3398 4.78516 59.0013 4.64844 58.5977 4.64844C58.194 4.64844 57.849 4.78516 57.5625 5.05859C57.2891 5.33203 57.1523 5.67057 57.1523 6.07422V30H54.2617V6.32812C54.2617 5.13021 54.6849 4.10807 55.5312 3.26172C56.3776 2.41536 57.3997 1.99219 58.5977 1.99219C59.6654 1.99219 60.6224 2.36979 61.4688 3.125C62.3151 2.36979 63.2786 1.99219 64.3594 1.99219ZM83.0586 30V1.99219H85.9492V30H83.0586ZM106.094 14.6875V1.99219H108.984V30H106.094V17.3242H103.223V30H100.332V1.99219H103.223V14.6875H106.094ZM124.656 3.26172C125.503 2.41536 126.525 1.99219 127.723 1.99219C128.921 1.99219 129.936 2.41536 130.77 3.26172C131.616 4.10807 132.039 5.13021 132.039 6.32812V25.6836C132.039 26.8815 131.616 27.9036 130.77 28.75C129.936 29.5833 128.921 30 127.723 30C126.525 30 125.503 29.5833 124.656 28.75C123.81 27.9036 123.387 26.8815 123.387 25.6836V6.32812C123.387 5.13021 123.81 4.10807 124.656 3.26172ZM129.148 25.918V6.07422C129.148 5.67057 129.012 5.33203 128.738 5.05859C128.465 4.78516 128.126 4.64844 127.723 4.64844C127.319 4.64844 126.974 4.78516 126.688 5.05859C126.414 5.33203 126.277 5.67057 126.277 6.07422V25.918C126.277 26.3216 126.414 26.6667 126.688 26.9531C126.974 27.2266 127.319 27.3633 127.723 27.3633C128.126 27.3633 128.465 27.2266 128.738 26.9531C129.012 26.6667 129.148 26.3216 129.148 25.918Z" fill="#F3C653" fill-opacity="0.7"/>
</g>
</svg>
