<svg aria-hidden="true" style="position: absolute; width: 0; height: 0; overflow: hidden;" version="1.1" xmlns="http://www.w3.org/2000/svg" xmlns:xlink="http://www.w3.org/1999/xlink">
<defs>
<symbol id="icon-entypo_location-pin" viewBox="0 0 32 32">
<path d="M16 3.215c-4.419 0-8 3.566-8 7.984 0 7.638 8 17.6 8 17.6s8-9.963 8-17.6c0-4.416-3.581-7.984-8-7.984zM16 15.616c-1.146 0-2.245-0.455-3.055-1.265s-1.265-1.909-1.265-3.055c0-1.146 0.455-2.245 1.265-3.055s1.909-1.265 3.055-1.265c1.146 0 2.245 0.455 3.055 1.265s1.265 1.909 1.265 3.055c0 1.146-0.455 2.245-1.265 3.055s-1.909 1.265-3.055 1.265z"></path>
</symbol>
</defs>
</svg>
